# xmcd
#
# Track frame offsets: 
#        150
#        12828
#        28476
#        51539
#        67358
#        81050
#        96798
#        114852
#        130790
#        147859
#        161711
#        176825
#        193078
#        209868
#        221788
#        236829
#
# Disc length: 3358 seconds
#
# Revision: 0
# Processed by: cddbd v1.5.2PL0 Copyright (c) Steve Scherf et al.
# Submitted via: ExactAudioCopyFreeDBPlugin 1.0
#
DISCID=fe0d1c10
DTITLE=Various Artist - Country Heat Bonfire
DYEAR=2013
DGENRE=Country
TTITLE0=Jake Owen - Barefoot Blue Jean Night
TTITLE1=Rodney Atkins - Take A Back Road
TTITLE2=Alan Jackson - Good Time
TTITLE3=Blake Shelton - Honey Bee
TTITLE4=Gord Bamford - Is It Friday Yet?
TTITLE5=Brad Paisley - Mud On The Tires
TTITLE6=Hunter Hayes - Storm Warning
TTITLE7=Kira Isabella - A Real Good Radio
TTITLE8=Zac Brown Band - No Hurry
TTITLE9=Tim McGraw - Something Like That
TTITLE10=Love And Theft - Runnin' Out Of Air
TTITLE11=Lee Brice - Love Like Crazy
TTITLE12=Gloriana - Wild At Heart
TTITLE13=Chris Young - I Can Take It From There
TTITLE14=Kenny Chesney - Out Last Night
TTITLE15=Nitty Gritty Dirt Band - Fishin' In The Dark
EXTD=
EXTT0=
EXTT1=
EXTT2=
EXTT3=
EXTT4=
EXTT5=
EXTT6=
EXTT7=
EXTT8=
EXTT9=
EXTT10=
EXTT11=
EXTT12=
EXTT13=
EXTT14=
EXTT15=
PLAYORDER=
